<svg version="1.1" id="Layer_1" xmlns="http://www.w3.org/2000/svg" xmlns:xlink="http://www.w3.org/1999/xlink" x="0px" y="0px"
	 width="100%" viewBox="0 0 2048 512" enable-background="new 0 0 2048 512" xml:space="preserve">
<path fill="#010101" opacity="1.000000" stroke="none" 
	d="
M1.000000,49.000000 
	C1.000000,33.002579 1.000000,17.005159 1.000000,1.005804 
	C683.554016,1.003870 1366.108032,1.003870 2049.000000,1.003870 
	C2049.000000,154.695877 2049.000000,308.391998 2048.661865,462.438843 
	C2047.444458,461.653687 2046.805176,460.051819 2045.647827,459.455627 
	C2036.497681,454.741669 2026.842163,453.470184 2016.436279,455.684814 
	C2014.069458,455.053192 2012.029907,454.500488 2009.795410,453.678162 
	C2001.181763,449.041962 1996.229980,441.755493 1992.970215,432.787231 
	C1989.798584,442.351959 1984.099487,449.116241 1975.643188,453.985352 
	C1973.264160,454.607086 1971.244385,455.188568 1968.875000,455.515015 
	C1966.376465,455.112610 1964.218994,454.759827 1962.079834,454.848663 
	C1928.424683,456.246216 1894.793091,454.452515 1861.029175,457.233704 
	C1824.112183,460.274567 1786.802734,458.480377 1749.668335,459.053436 
	C1745.697998,459.114685 1741.463745,460.313812 1737.876099,462.061310 
	C1733.847412,464.023651 1730.738281,467.260773 1730.697876,472.531311 
	C1730.594482,486.021851 1730.248779,499.510559 1730.000000,513.000000 
	C1153.666626,513.000000 577.333313,513.000000 1.000000,513.000000 
	C1.000000,508.243744 1.000000,503.578156 1.467091,498.413269 
	C47.753777,497.896179 93.573364,497.878815 139.392960,497.859833 
	C143.891632,497.857941 148.391449,497.780121 152.888641,497.857910 
	C157.058517,497.929993 160.019653,496.172089 161.264801,492.199097 
	C162.142502,489.398499 162.991394,486.452850 163.049240,483.555939 
	C163.252136,473.396606 163.105560,463.230347 163.094162,453.066711 
	C163.074188,435.238770 163.141327,417.410217 163.005325,399.583160 
	C162.923004,388.792908 158.791672,384.816711 148.287888,384.817139 
	C107.966324,384.818787 67.644447,384.870178 27.323832,384.672180 
	C24.468744,384.658173 20.829245,383.512939 19.004959,381.547455 
	C17.318567,379.730499 17.063374,376.104828 17.060654,373.274933 
	C16.960365,268.972046 16.964602,164.669083 16.948528,60.366131 
	C16.947296,52.373341 13.044701,48.570446 4.975296,48.685452 
	C3.648973,48.704353 2.325038,48.890919 1.000000,49.000000 
M1850.050537,429.051147 
	C1850.050537,429.051147 1850.039795,429.118835 1850.666992,428.979614 
	C1851.418701,428.597229 1852.170532,428.214874 1853.640015,427.834137 
	C1856.426025,426.464844 1859.212036,425.095551 1862.577515,423.714447 
	C1863.091431,423.167114 1863.605347,422.619812 1864.036743,422.062256 
	C1864.036743,422.062256 1864.097046,422.119507 1864.786621,421.983643 
	C1874.897217,417.262878 1883.089111,410.078125 1890.335693,401.770203 
	C1891.673584,400.236328 1892.219971,398.012177 1893.073975,396.031311 
	C1893.073975,396.031311 1893.089355,396.124756 1893.703003,395.867462 
	C1895.145508,394.282074 1897.105957,392.930023 1897.943481,391.071899 
	C1902.125977,381.790863 1906.013672,372.377014 1910.673218,362.674805 
	C1911.075806,359.757019 1911.478394,356.839233 1911.942505,353.959381 
	C1911.942505,353.959381 1911.922485,353.889801 1912.619629,353.586670 
	C1912.930298,346.706299 1913.240967,339.825958 1913.685181,332.024872 
	C1913.430298,324.028381 1913.175415,316.031891 1912.757812,307.374176 
	C1911.151001,306.388062 1909.544189,305.401978 1907.317139,304.325104 
	C1906.900146,304.331116 1906.483276,304.337158 1905.489502,304.346497 
	C1905.056030,304.920319 1904.622559,305.494110 1903.484131,306.255157 
	C1903.013184,306.375946 1902.542114,306.496735 1901.313599,306.390289 
	C1897.931030,307.629150 1894.548340,308.867981 1891.104370,310.123138 
	C1891.104370,310.123138 1891.093506,310.185760 1890.265503,310.200653 
	C1886.097412,311.776093 1881.929321,313.351532 1877.609253,315.287659 
	C1877.609253,315.287659 1877.618530,315.678955 1877.721069,315.643982 
	C1877.721069,315.643982 1877.678833,315.544159 1877.078857,315.329376 
	C1875.752441,315.304779 1874.425903,315.280182 1872.451172,315.215820 
	C1871.659790,315.891571 1870.868408,316.567352 1869.285034,317.212341 
	C1868.234863,317.303650 1867.184814,317.394958 1865.502686,317.429565 
	C1864.711670,318.078552 1863.920654,318.727570 1862.378540,319.324432 
	C1861.630493,319.391937 1860.882446,319.459442 1859.497070,319.432739 
	C1858.706177,320.077118 1857.915161,320.721497 1856.315308,321.363190 
	C1855.252808,321.506592 1854.190308,321.649994 1852.584351,321.637939 
	C1852.079102,322.104675 1851.573853,322.571442 1850.279175,323.176483 
	C1849.227417,323.346375 1848.175537,323.516266 1846.487915,323.516113 
	C1845.600708,323.971313 1844.713379,324.426514 1843.244141,325.180817 
	C1842.864990,325.396576 1842.485718,325.612335 1841.462891,325.617004 
	C1840.330078,326.090179 1839.197144,326.563354 1837.726929,327.576385 
	C1837.509644,328.390167 1837.292358,329.203979 1836.569458,330.395691 
	C1836.180420,331.301849 1835.791382,332.207977 1835.292236,333.941101 
	C1834.791992,336.533447 1834.291626,339.125763 1833.238281,342.173248 
	C1832.766357,344.079651 1832.294556,345.986023 1831.916870,347.903534 
	C1831.916870,347.903534 1831.845947,347.840485 1831.313477,348.080963 
	C1830.975220,348.750031 1830.636841,349.419098 1830.067627,350.444672 
	C1830.067627,350.444672 1829.890869,350.830933 1829.372681,351.105774 
	C1829.064453,351.773926 1828.756226,352.442078 1827.989014,353.633362 
	C1825.017212,355.714539 1822.283936,358.337006 1819.027466,359.772888 
	C1810.132202,363.694946 1800.653931,365.058899 1790.987671,364.135162 
	C1784.017334,363.469116 1776.537109,363.572693 1770.290405,360.943237 
	C1760.354492,356.760986 1754.437744,347.958679 1753.900269,337.122620 
	C1753.092041,320.826965 1753.453613,304.474304 1753.255981,288.146637 
	C1753.199585,283.482666 1755.254028,281.396912 1759.990723,280.728577 
	C1767.300293,279.697235 1774.521729,277.994232 1781.745483,276.415741 
	C1789.583130,274.703094 1797.366943,272.744293 1805.200073,271.009399 
	C1812.235718,269.451111 1819.327759,268.144257 1826.356323,266.556122 
	C1834.170410,264.790466 1841.926758,262.770050 1849.734619,260.974945 
	C1857.554077,259.177124 1865.405762,257.518097 1873.244141,255.802567 
	C1881.738647,253.943390 1890.160034,251.541107 1898.749268,250.380798 
	C1908.101562,249.117371 1911.921265,245.542999 1911.944458,235.981934 
	C1912.011963,208.151505 1912.025879,180.320587 1912.225220,152.491043 
	C1912.303589,141.568466 1911.338013,130.873505 1909.110107,120.113785 
	C1905.616333,103.240532 1898.962524,87.801147 1888.363525,74.539223 
	C1874.964844,57.774033 1858.692017,44.270214 1838.131226,36.599510 
	C1826.174194,32.138618 1813.734375,29.974518 1801.196167,28.996349 
	C1785.206299,27.748888 1769.253784,28.980703 1753.595947,32.984993 
	C1746.921875,34.691818 1739.800171,35.128941 1733.480347,37.645908 
	C1717.385254,44.056190 1702.946045,53.053379 1691.210693,66.268448 
	C1673.991577,85.658699 1664.623657,108.248749 1664.384766,133.923126 
	C1663.861938,190.079803 1664.253052,246.244675 1664.193726,302.406128 
	C1664.179565,315.819977 1664.607666,329.039246 1667.712280,342.303497 
	C1670.950684,356.138916 1676.696045,368.668762 1684.085693,380.440063 
	C1692.428589,393.729828 1702.735229,405.548584 1715.855835,414.437592 
	C1722.218506,418.748108 1729.147095,422.223297 1736.151855,426.613556 
	C1737.095215,426.946075 1738.038452,427.278564 1739.280518,427.923920 
	C1739.280518,427.923920 1739.658569,428.134308 1740.036377,428.746307 
	C1746.706787,431.039734 1753.377319,433.333160 1760.888916,435.843750 
	C1763.618164,436.226410 1766.347412,436.609039 1769.444214,437.661041 
	C1774.952515,437.947144 1780.460815,438.233246 1786.878540,438.775604 
	C1793.695679,438.891815 1800.513428,439.108124 1807.329346,439.059082 
	C1809.204834,439.045593 1811.074707,438.239594 1813.604248,437.853058 
	C1814.377197,437.518311 1815.150146,437.183563 1816.824219,436.947784 
	C1820.737183,436.931885 1824.864258,437.870544 1828.848633,434.677765 
	C1832.561279,433.935150 1836.273804,433.192505 1840.705078,432.653564 
	C1843.136963,431.767578 1845.568726,430.881592 1848.412109,430.218414 
	C1848.979614,429.837341 1849.547241,429.456238 1850.050537,429.051147 
M700.270569,342.614227 
	C699.459839,332.040436 702.621948,329.775543 712.727051,329.858887 
	C745.720459,330.130890 778.717834,329.941589 811.713684,329.907013 
	C822.428101,329.895782 825.859619,326.531799 825.868347,315.953796 
	C825.891541,287.790680 825.563232,259.622345 826.038940,231.467300 
	C826.189880,222.533646 820.671082,216.531357 811.153748,216.704559 
	C778.501404,217.298752 745.832520,216.998108 713.169983,217.008789 
	C705.306030,217.011353 700.223877,211.873505 700.211060,203.998077 
	C700.194214,193.666077 700.202087,183.333984 700.216797,173.001953 
	C700.228149,165.061661 702.335083,162.994446 710.307739,162.994705 
	C754.135620,162.996170 797.965637,162.757828 841.789612,163.171860 
	C851.565796,163.264221 856.668457,157.372879 857.039490,147.660797 
	C857.268372,141.669968 857.105957,135.663864 857.103638,129.664612 
	C857.095154,107.334122 857.170898,85.003036 857.026550,62.673401 
	C856.961792,52.658104 853.172485,48.712444 844.208984,48.712963 
	C765.052185,48.717556 685.895325,48.733894 606.738525,48.769760 
	C597.555420,48.773922 593.762817,52.691322 593.764709,61.908310 
	C593.787415,172.561203 593.809998,283.214081 593.826477,393.866974 
	C593.831055,424.363159 593.835693,454.859375 593.793945,485.355499 
	C593.783936,492.653595 597.669373,498.037506 606.143555,498.007477 
	C685.799255,497.725098 765.456360,497.837280 845.113098,497.823456 
	C853.022522,497.822083 856.228455,494.870026 856.941895,486.983673 
	C857.076538,485.494995 856.997375,483.985962 856.998352,482.486328 
	C857.012634,460.989014 857.024841,439.491699 857.034729,417.994385 
	C857.037781,411.328583 857.643982,404.593048 856.893921,398.012543 
	C855.622986,386.860992 853.506714,383.270599 842.466370,383.618317 
	C826.151062,384.132233 809.807983,383.769073 793.476685,383.767975 
	C781.325500,383.767181 769.174316,383.739319 757.023132,383.739838 
	C742.191772,383.740448 727.358459,383.905518 712.529724,383.712433 
	C703.836914,383.599243 700.222046,379.636261 700.221191,371.081238 
	C700.220337,361.915741 700.254333,352.750214 700.270569,342.614227 
M427.768982,309.454529 
	C427.187897,302.055756 426.539215,294.661560 426.042114,287.257141 
	C425.343811,276.857056 424.766968,266.448853 424.121613,256.045135 
	C423.527954,246.475052 422.863495,236.909119 422.316589,227.336411 
	C421.170502,207.275436 420.111298,187.209488 418.954956,167.149124 
	C418.422455,157.910736 417.730652,148.681641 417.137482,139.446640 
	C416.480530,129.218704 415.758911,118.993690 415.235809,108.758698 
	C414.432343,93.038063 413.774536,77.309990 413.053558,61.585129 
	C413.038300,61.252354 413.028290,60.917168 412.979889,60.588406 
	C411.956940,53.641846 407.753265,48.834099 402.157745,48.819862 
	C373.659882,48.747349 345.161499,48.754520 316.663696,48.846294 
	C310.575562,48.865902 306.782471,52.874420 307.025665,59.030136 
	C307.140991,61.949272 308.475494,64.807281 308.710602,67.736893 
	C309.728577,80.421005 310.543793,93.121376 311.436798,105.815552 
	C311.471588,106.310425 311.528961,106.805443 311.607910,107.295204 
	C312.758636,114.433662 314.100647,121.547241 315.026276,128.714630 
	C316.418884,139.497986 317.555969,150.315033 318.737427,161.124786 
	C320.087006,173.472137 321.353088,185.828568 322.679871,198.178436 
	C323.720764,207.866943 324.772797,217.554413 325.867096,227.237000 
	C327.180359,238.857269 328.673096,250.458832 329.843781,262.093079 
	C330.753876,271.137817 331.284180,280.220673 331.999298,289.285309 
	C332.077637,290.277954 332.280182,291.260071 332.393921,292.250702 
	C333.963928,305.924408 335.633331,319.587830 337.055542,333.276947 
	C337.926392,341.659088 338.351196,350.086578 339.099579,358.482727 
	C339.596466,364.057404 340.244202,369.621063 340.941772,375.174896 
	C342.584900,388.257446 344.396881,401.319489 345.953766,414.412018 
	C347.336182,426.037323 348.554779,437.684021 349.684875,449.336884 
	C350.885956,461.722046 352.057587,474.114197 352.936249,486.524933 
	C353.519592,494.764587 356.354034,497.803101 364.567108,497.804138 
	C414.730682,497.810638 464.894226,497.806427 515.057800,497.801819 
	C516.390564,497.801697 517.728149,497.821320 519.055115,497.721130 
	C523.126648,497.413757 525.430298,495.157990 525.986816,491.153870 
	C527.278015,481.864105 528.689514,472.587128 529.755676,463.271027 
	C531.017029,452.250458 531.937622,441.191284 533.059021,430.154205 
	C534.243896,418.493103 535.490601,406.838287 536.711914,395.180878 
	C538.507080,378.044800 540.270142,360.905273 542.111389,343.774139 
	C543.343933,332.306061 544.838440,320.864471 545.942627,309.384735 
	C547.196045,296.352875 548.115173,283.289154 549.236938,270.244232 
	C549.947571,261.980164 550.601807,253.706009 551.576660,245.471329 
	C552.563660,237.134415 554.105774,228.862289 555.052246,220.521774 
	C556.019348,212.000046 556.487610,203.422928 557.308655,194.882980 
	C557.876099,188.980667 558.563538,183.084991 559.393005,177.214005 
	C560.451111,169.724884 562.103149,162.300079 562.793518,154.782745 
	C564.204956,139.413437 565.132629,123.999908 566.304321,108.608009 
	C566.390930,107.469971 566.927185,106.372978 567.098755,105.233482 
	C568.325378,97.085907 569.654907,88.949852 570.659180,80.774193 
	C571.301941,75.541565 571.447021,70.247711 571.812195,64.981094 
	C572.540405,54.479881 572.042786,48.380936 558.515015,48.637814 
	C531.193359,49.156628 503.854706,48.773800 476.523071,48.783241 
	C468.646820,48.785961 465.227264,52.301773 465.130798,60.369534 
	C465.076996,64.867958 465.292816,69.391769 464.891235,73.859566 
	C463.814270,85.841187 462.318909,97.785675 461.279114,109.770020 
	C460.420288,119.668228 459.913696,129.598877 459.358887,139.521179 
	C458.257568,159.216949 457.258850,178.918442 456.164673,198.614609 
	C455.135559,217.138351 454.062286,235.659760 452.961334,254.179382 
	C452.332764,264.752625 451.614655,275.320618 450.928619,285.890411 
	C450.275818,295.946960 449.452179,305.995422 448.989563,316.060577 
	C448.221130,332.779816 447.782806,349.514374 446.979736,366.231659 
	C446.758453,370.838379 446.223999,375.558441 444.863525,379.924347 
	C444.243042,381.915497 441.495636,383.823944 439.300385,384.594116 
	C436.690125,385.510010 434.501007,383.928894 433.822113,380.942993 
	C433.206757,378.236725 432.154205,375.562775 431.993500,372.833405 
	C431.592377,366.020050 431.866119,359.162964 431.367401,352.360199 
	C430.341827,338.372101 428.988342,324.407990 427.768982,309.454529 
M1426.957397,416.520569 
	C1428.008911,420.155792 1429.111328,423.777252 1430.102173,427.428955 
	C1432.858276,437.585663 1435.554932,447.758514 1438.300293,457.918213 
	C1440.876221,467.450989 1443.769775,476.909027 1445.992188,486.522827 
	C1447.946289,494.975861 1450.776855,497.733185 1459.371948,497.741028 
	C1481.871704,497.761597 1504.373291,497.610260 1526.870117,497.878204 
	C1533.563965,497.957916 1536.113892,494.083557 1534.590942,488.333130 
	C1532.193481,479.280670 1529.211060,470.375519 1526.268066,461.476868 
	C1520.575928,444.266418 1514.536255,427.168671 1509.019409,409.903198 
	C1503.599121,392.939789 1498.799805,375.778534 1493.442993,358.794067 
	C1489.280518,345.596191 1484.613403,332.558167 1480.325195,319.398743 
	C1479.372437,316.475159 1480.298218,314.101196 1483.170654,312.186462 
	C1488.527710,308.615631 1493.823730,304.875519 1498.723389,300.709839 
	C1518.747559,283.685211 1528.926636,261.201721 1528.861938,235.624771 
	C1528.772095,200.118896 1531.512451,164.533722 1527.210205,129.046066 
	C1525.805176,117.456955 1521.860474,107.015617 1516.408081,97.025032 
	C1507.409546,80.536453 1493.576538,68.706245 1477.931152,58.911503 
	C1465.011475,50.823132 1450.490479,48.770500 1435.546143,48.765434 
	C1394.046509,48.751362 1352.546753,48.716698 1311.047119,48.690033 
	C1301.436890,48.683857 1299.068726,51.053612 1299.067261,60.757065 
	C1299.051392,164.922974 1299.033203,269.088898 1299.032104,373.254791 
	C1299.031738,411.587799 1299.057861,449.920837 1299.115479,488.253784 
	C1299.125244,494.794861 1301.619385,497.695099 1307.280762,497.714020 
	C1329.780396,497.789215 1352.280396,497.813660 1374.780151,497.773621 
	C1380.289307,497.763794 1383.193726,494.686646 1383.289673,489.008270 
	C1383.464111,478.679169 1383.657837,468.348785 1383.668579,458.018768 
	C1383.712646,415.352539 1383.688477,372.686218 1383.696411,330.019928 
	C1383.697876,322.185028 1383.938110,321.965607 1391.932983,321.995148 
	C1392.932983,321.998840 1393.955811,322.150330 1394.928833,321.992218 
	C1399.057373,321.321228 1401.277344,323.637207 1402.336182,327.082672 
	C1404.997192,335.741821 1407.544312,344.440857 1409.898682,353.188080 
	C1412.469604,362.739929 1414.663574,372.393066 1417.220459,381.948914 
	C1420.244385,393.249390 1423.480713,404.493073 1426.957397,416.520569 
M1068.128418,431.500000 
	C1068.130127,449.828979 1068.075317,468.158203 1068.161743,486.486786 
	C1068.195557,493.651703 1072.043823,497.739868 1078.580322,497.742584 
	C1142.732788,497.769379 1206.885376,497.771790 1271.037842,497.751526 
	C1277.520874,497.749481 1281.087280,494.572876 1281.118652,488.197693 
	C1281.248779,461.704315 1281.465942,435.205261 1281.019653,408.718933 
	C1280.886963,400.839661 1276.348633,397.562103 1269.857910,397.616821 
	C1236.034424,397.902008 1202.207764,397.808472 1168.382202,397.844879 
	C1161.624878,397.852142 1159.323730,395.675232 1159.309937,388.984833 
	C1159.266846,368.156219 1159.276367,347.327423 1159.282349,326.498718 
	C1159.284302,319.482025 1160.763672,318.015320 1167.804077,318.005035 
	C1193.798218,317.967072 1219.792480,317.943634 1245.786621,317.906403 
	C1252.460327,317.896851 1256.238647,314.251678 1256.249634,307.533051 
	C1256.288940,283.705109 1256.292358,259.876831 1256.207031,236.049057 
	C1256.181641,228.946823 1251.336670,224.266754 1244.257568,224.251862 
	C1219.263184,224.199249 1194.268921,224.178741 1169.274536,224.166687 
	C1160.869385,224.162628 1159.367920,222.769501 1159.347290,214.286240 
	C1159.299927,194.790665 1159.314087,175.294907 1159.332764,155.799240 
	C1159.339722,148.543579 1160.969116,146.907944 1168.072266,146.907120 
	C1201.731445,146.903244 1235.392578,146.722794 1269.048462,147.058319 
	C1276.399536,147.131592 1281.317017,142.524261 1281.270264,134.929642 
	C1281.117554,110.102783 1281.233887,85.274330 1281.220215,60.446503 
	C1281.215576,52.176762 1277.719238,48.728107 1269.469360,48.725372 
	C1206.483276,48.704506 1143.497192,48.684208 1080.511108,48.661381 
	C1071.912598,48.658264 1068.122070,52.422176 1068.121948,61.084198 
	C1068.119629,184.222794 1068.125854,307.361389 1068.128418,431.500000 
M285.057465,374.500000 
	C285.064148,270.523438 285.073242,166.546875 285.073608,62.570320 
	C285.073639,52.581528 281.225983,48.710217 271.267426,48.710098 
	C245.439926,48.709789 219.612396,48.732723 193.784912,48.764458 
	C182.985519,48.777729 179.062927,52.695717 179.063965,63.452240 
	C179.073044,157.431046 179.095856,251.409866 179.099258,345.388672 
	C179.100922,391.045013 179.063934,436.701385 179.057404,482.357727 
	C179.055649,494.651947 182.126541,497.795532 194.118256,497.806335 
	C220.445648,497.830017 246.773041,497.837799 273.100433,497.847717 
	C282.102081,497.851105 285.052979,494.959351 285.056946,485.975098 
	C285.073181,449.150055 285.060822,412.325043 285.057465,374.500000 
M1550.253174,163.500137 
	C1550.240967,258.492462 1550.227417,353.484802 1550.217773,448.477142 
	C1550.216431,461.476074 1550.129761,474.476257 1550.286133,487.473419 
	C1550.372192,494.629364 1553.789673,497.814209 1560.707153,497.806488 
	C1585.038696,497.779266 1609.370117,497.753387 1633.701660,497.722595 
	C1642.293457,497.711731 1644.835449,495.121033 1644.846680,486.330475 
	C1644.858521,476.997833 1644.842407,467.665161 1644.840210,458.332520 
	C1644.809448,325.675781 1644.782959,193.019058 1644.739746,60.362331 
	C1644.736816,51.515732 1641.981201,48.837597 1633.108887,48.827141 
	C1609.110718,48.798851 1585.112427,48.771389 1561.114258,48.753086 
	C1553.302002,48.747128 1550.237549,51.769302 1550.237427,59.507797 
	C1550.236694,93.838570 1550.249268,128.169342 1550.253174,163.500137 
M912.523438,222.172348 
	C910.524719,222.149292 908.526062,222.123474 906.527344,222.103668 
	C898.069641,222.019867 896.542358,223.522751 896.545898,231.800461 
	C896.575134,299.772247 896.588501,367.744049 896.626526,435.715851 
	C896.636597,453.708008 896.638428,471.700867 896.806519,489.691833 
	C896.860718,495.494385 899.361511,497.669647 905.163574,497.674713 
	C912.327271,497.680939 919.490906,497.619690 926.654602,497.620911 
	C962.806335,497.627167 998.958130,497.649597 1035.109863,497.652466 
	C1041.411499,497.652954 1044.069824,495.135284 1044.121216,489.165253 
	C1044.147095,486.166931 1044.084473,483.167908 1044.083618,480.169220 
	C1044.059937,397.370331 1044.048096,314.571411 1044.003784,231.772522 
	C1043.999512,223.703400 1041.945801,221.847977 1033.964355,221.873138 
	C993.815063,221.999710 953.665710,222.084106 912.523438,222.172348 
M986.746155,174.500748 
	C986.746155,165.621964 986.746155,156.743195 986.746155,147.864410 
	C988.425232,148.263718 988.843567,148.614029 988.966309,149.048004 
	C993.697815,165.768127 998.453613,182.481796 1003.064819,199.235245 
	C1003.936890,202.403839 1005.324829,204.044327 1008.894043,203.956848 
	C1018.215149,203.728348 1027.547241,203.633118 1036.867676,203.827560 
	C1041.282104,203.919647 1042.833130,202.107315 1042.754883,197.923569 
	C1042.608398,190.098129 1042.652832,182.268723 1042.655640,174.440979 
	C1042.670166,134.468842 1042.619873,94.496315 1042.821899,54.525089 
	C1042.845703,49.808643 1041.348267,48.596558 1036.855103,48.747681 
	C1027.872314,49.049831 1018.864563,48.983955 1009.880066,48.683178 
	C1005.957642,48.551865 1004.676147,49.638794 1004.725464,53.680065 
	C1004.910278,68.831276 1004.750244,83.986862 1004.688538,99.140686 
	C1004.681641,100.831749 1004.477417,102.522003 1004.364685,104.212631 
	C1003.721497,104.318321 1003.078308,104.424011 1002.435181,104.529701 
	C995.602966,86.566002 993.206238,67.232506 986.598328,49.122314 
	C973.959534,49.122314 961.240295,49.122314 948.091431,49.122314 
	C948.091431,51.366940 948.090332,53.178753 948.091553,54.990566 
	C948.115784,91.631645 948.135254,128.272720 948.168213,164.913803 
	C948.177979,175.738464 948.216125,186.563156 948.262573,197.387726 
	C948.278320,201.060440 950.065308,203.558914 953.781616,203.666763 
	C963.268250,203.942032 972.764404,203.880219 982.256042,204.005005 
	C985.397339,204.046295 986.737549,202.693390 986.701294,199.477417 
	C986.611267,191.486389 986.727600,183.493027 986.746155,174.500748 
M935.134338,160.501709 
	C935.122009,136.026352 935.102783,111.551003 935.100464,87.075645 
	C935.099365,75.920845 935.037476,64.764671 935.200928,53.612019 
	C935.255005,49.915222 933.917297,48.700821 930.217163,48.777824 
	C920.564819,48.978710 910.903992,48.875191 901.248352,48.753197 
	C898.248108,48.715290 896.750793,49.345726 896.758118,52.884735 
	C896.858459,101.169098 896.837830,149.453766 896.790039,197.738297 
	C896.785706,202.146057 898.748962,204.192429 903.112366,204.117523 
	C911.435242,203.974640 919.759888,203.915924 928.081909,203.736420 
	C934.381714,203.600540 935.218689,202.895111 935.269653,196.461136 
	C935.361816,184.809006 935.194763,173.154816 935.134338,160.501709 
z"/>
<path fill="#4D3056" opacity="1.000000" stroke="none" 
	d="
M1.000000,49.468658 
	C2.325038,48.890919 3.648973,48.704353 4.975296,48.685452 
	C13.044701,48.570446 16.947296,52.373341 16.948528,60.366131 
	C16.964602,164.669083 16.960365,268.972046 17.060654,373.274933 
	C17.063374,376.104828 17.318567,379.730499 19.004959,381.547455 
	C20.829245,383.512939 24.468744,384.658173 27.323832,384.672180 
	C67.644447,384.870178 107.966324,384.818787 148.287888,384.817139 
	C158.791672,384.816711 162.923004,388.792908 163.005325,399.583160 
	C163.141327,417.410217 163.074188,435.238770 163.094162,453.066711 
	C163.105560,463.230347 163.252136,473.396606 163.049240,483.555939 
	C162.991394,486.452850 162.142502,489.398499 161.264801,492.199097 
	C160.019653,496.172089 157.058517,497.929993 152.888641,497.857910 
	C148.391449,497.780121 143.891632,497.857941 139.392960,497.859833 
	C93.573364,497.878815 47.753777,497.896179 1.467091,497.957001 
	C1.000000,348.645782 1.000000,199.291550 1.000000,49.468658 
z"/>
<path fill="#1E5D67" opacity="1.000000" stroke="none" 
	d="
M1730.468628,513.000000 
	C1730.248779,499.510559 1730.594482,486.021851 1730.697876,472.531311 
	C1730.738281,467.260773 1733.847412,464.023651 1737.876099,462.061310 
	C1741.463745,460.313812 1745.697998,459.114685 1749.668335,459.053436 
	C1786.802734,458.480377 1824.112183,460.274567 1861.029175,457.233704 
	C1894.793091,454.452515 1928.424683,456.246216 1962.079834,454.848663 
	C1964.218994,454.759827 1966.376465,455.112610 1968.842285,455.887115 
	C1970.447510,457.374969 1971.744873,458.222595 1973.022461,459.098785 
	C1976.805542,461.693115 1980.580933,464.298828 1984.020752,467.048401 
	C1981.216675,469.488617 1978.630371,471.665527 1976.311401,474.097290 
	C1972.075684,478.538971 1967.821289,482.984833 1963.909668,487.706482 
	C1960.650879,491.640137 1960.808472,499.862427 1963.498779,504.307495 
	C1965.184448,507.092804 1966.511841,510.095062 1968.000000,513.000000 
	C1888.979126,513.000000 1809.958130,513.000000 1730.468628,513.000000 
z"/>
<path fill="#21616B" opacity="1.000000" stroke="none" 
	d="
M1968.468628,513.000000 
	C1966.511841,510.095062 1965.184448,507.092804 1963.498779,504.307495 
	C1960.808472,499.862427 1960.650879,491.640137 1963.909668,487.706482 
	C1967.821289,482.984833 1972.075684,478.538971 1976.311401,474.097290 
	C1978.630371,471.665527 1981.216675,469.488617 1984.287598,467.230774 
	C1987.614014,471.672668 1990.335083,476.080505 1993.079224,480.525848 
	C1993.130981,480.518036 1993.358276,480.551300 1993.430176,480.461029 
	C1993.733643,480.079498 1994.098511,479.697510 1994.249146,479.250885 
	C1997.695068,469.041504 2004.336304,462.022919 2014.613647,458.463043 
	C2015.531738,458.145020 2016.056274,456.690460 2016.763672,455.763733 
	C2026.842163,453.470184 2036.497681,454.741669 2045.647827,459.455627 
	C2046.805176,460.051819 2047.444458,461.653687 2048.661865,462.894806 
	C2049.000000,479.610809 2049.000000,496.221649 2049.000000,513.000000 
	C2022.312622,513.000000 1995.625000,513.000000 1968.468628,513.000000 
z"/>
<path fill="#4C3055" opacity="1.000000" stroke="none" 
	d="
M700.271851,343.099487 
	C700.254333,352.750214 700.220337,361.915741 700.221191,371.081238 
	C700.222046,379.636261 703.836914,383.599243 712.529724,383.712433 
	C727.358459,383.905518 742.191772,383.740448 757.023132,383.739838 
	C769.174316,383.739319 781.325500,383.767181 793.476685,383.767975 
	C809.807983,383.769073 826.151062,384.132233 842.466370,383.618317 
	C853.506714,383.270599 855.622986,386.860992 856.893921,398.012543 
	C857.643982,404.593048 857.037781,411.328583 857.034729,417.994385 
	C857.024841,439.491699 857.012634,460.989014 856.998352,482.486328 
	C856.997375,483.985962 857.076538,485.494995 856.941895,486.983673 
	C856.228455,494.870026 853.022522,497.822083 845.113098,497.823456 
	C765.456360,497.837280 685.799255,497.725098 606.143555,498.007477 
	C597.669373,498.037506 593.783936,492.653595 593.793945,485.355499 
	C593.835693,454.859375 593.831055,424.363159 593.826477,393.866974 
	C593.809998,283.214081 593.787415,172.561203 593.764709,61.908310 
	C593.762817,52.691322 597.555420,48.773922 606.738525,48.769760 
	C685.895325,48.733894 765.052185,48.717556 844.208984,48.712963 
	C853.172485,48.712444 856.961792,52.658104 857.026550,62.673401 
	C857.170898,85.003036 857.095154,107.334122 857.103638,129.664612 
	C857.105957,135.663864 857.268372,141.669968 857.039490,147.660797 
	C856.668457,157.372879 851.565796,163.264221 841.789612,163.171860 
	C797.965637,162.757828 754.135620,162.996170 710.307739,162.994705 
	C702.335083,162.994446 700.228149,165.061661 700.216797,173.001953 
	C700.202087,183.333984 700.194214,193.666077 700.211060,203.998077 
	C700.223877,211.873505 705.306030,217.011353 713.169983,217.008789 
	C745.832520,216.998108 778.501404,217.298752 811.153748,216.704559 
	C820.671082,216.531357 826.189880,222.533646 826.038940,231.467300 
	C825.563232,259.622345 825.891541,287.790680 825.868347,315.953796 
	C825.859619,326.531799 822.428101,329.895782 811.713684,329.907013 
	C778.717834,329.941589 745.720459,330.130890 712.727051,329.858887 
	C702.621948,329.775543 699.459839,332.040436 700.271851,343.099487 
z"/>
<path fill="#4C3054" opacity="1.000000" stroke="none" 
	d="
M427.769409,309.944275 
	C428.988342,324.407990 430.341827,338.372101 431.367401,352.360199 
	C431.866119,359.162964 431.592377,366.020050 431.993500,372.833405 
	C432.154205,375.562775 433.206757,378.236725 433.822113,380.942993 
	C434.501007,383.928894 436.690125,385.510010 439.300385,384.594116 
	C441.495636,383.823944 444.243042,381.915497 444.863525,379.924347 
	C446.223999,375.558441 446.758453,370.838379 446.979736,366.231659 
	C447.782806,349.514374 448.221130,332.779816 448.989563,316.060577 
	C449.452179,305.995422 450.275818,295.946960 450.928619,285.890411 
	C451.614655,275.320618 452.332764,264.752625 452.961334,254.179382 
	C454.062286,235.659760 455.135559,217.138351 456.164673,198.614609 
	C457.258850,178.918442 458.257568,159.216949 459.358887,139.521179 
	C459.913696,129.598877 460.420288,119.668228 461.279114,109.770020 
	C462.318909,97.785675 463.814270,85.841187 464.891235,73.859566 
	C465.292816,69.391769 465.076996,64.867958 465.130798,60.369534 
	C465.227264,52.301773 468.646820,48.785961 476.523071,48.783241 
	C503.854706,48.773800 531.193359,49.156628 558.515015,48.637814 
	C572.042786,48.380936 572.540405,54.479881 571.812195,64.981094 
	C571.447021,70.247711 571.301941,75.541565 570.659180,80.774193 
	C569.654907,88.949852 568.325378,97.085907 567.098755,105.233482 
	C566.927185,106.372978 566.390930,107.469971 566.304321,108.608009 
	C565.132629,123.999908 564.204956,139.413437 562.793518,154.782745 
	C562.103149,162.300079 560.451111,169.724884 559.393005,177.214005 
	C558.563538,183.084991 557.876099,188.980667 557.308655,194.882980 
	C556.487610,203.422928 556.019348,212.000046 555.052246,220.521774 
	C554.105774,228.862289 552.563660,237.134415 551.576660,245.471329 
	C550.601807,253.706009 549.947571,261.980164 549.236938,270.244232 
	C548.115173,283.289154 547.196045,296.352875 545.942627,309.384735 
	C544.838440,320.864471 543.343933,332.306061 542.111389,343.774139 
	C540.270142,360.905273 538.507080,378.044800 536.711914,395.180878 
	C535.490601,406.838287 534.243896,418.493103 533.059021,430.154205 
	C531.937622,441.191284 531.017029,452.250458 529.755676,463.271027 
	C528.689514,472.587128 527.278015,481.864105 525.986816,491.153870 
	C525.430298,495.157990 523.126648,497.413757 519.055115,497.721130 
	C517.728149,497.821320 516.390564,497.801697 515.057800,497.801819 
	C464.894226,497.806427 414.730682,497.810638 364.567108,497.804138 
	C356.354034,497.803101 353.519592,494.764587 352.936249,486.524933 
	C352.057587,474.114197 350.885956,461.722046 349.684875,449.336884 
	C348.554779,437.684021 347.336182,426.037323 345.953766,414.412018 
	C344.396881,401.319489 342.584900,388.257446 340.941772,375.174896 
	C340.244202,369.621063 339.596466,364.057404 339.099579,358.482727 
	C338.351196,350.086578 337.926392,341.659088 337.055542,333.276947 
	C335.633331,319.587830 333.963928,305.924408 332.393921,292.250702 
	C332.280182,291.260071 332.077637,290.277954 331.999298,289.285309 
	C331.284180,280.220673 330.753876,271.137817 329.843781,262.093079 
	C328.673096,250.458832 327.180359,238.857269 325.867096,227.237000 
	C324.772797,217.554413 323.720764,207.866943 322.679871,198.178436 
	C321.353088,185.828568 320.087006,173.472137 318.737427,161.124786 
	C317.555969,150.315033 316.418884,139.497986 315.026276,128.714630 
	C314.100647,121.547241 312.758636,114.433662 311.607910,107.295204 
	C311.528961,106.805443 311.471588,106.310425 311.436798,105.815552 
	C310.543793,93.121376 309.728577,80.421005 308.710602,67.736893 
	C308.475494,64.807281 307.140991,61.949272 307.025665,59.030136 
	C306.782471,52.874420 310.575562,48.865902 316.663696,48.846294 
	C345.161499,48.754520 373.659882,48.747349 402.157745,48.819862 
	C407.753265,48.834099 411.956940,53.641846 412.979889,60.588406 
	C413.028290,60.917168 413.038300,61.252354 413.053558,61.585129 
	C413.774536,77.309990 414.432343,93.038063 415.235809,108.758698 
	C415.758911,118.993690 416.480530,129.218704 417.137482,139.446640 
	C417.730652,148.681641 418.422455,157.910736 418.954956,167.149124 
	C420.111298,187.209488 421.170502,207.275436 422.316589,227.336411 
	C422.863495,236.909119 423.527954,246.475052 424.121613,256.045135 
	C424.766968,266.448853 425.343811,276.857056 426.042114,287.257141 
	C426.539215,294.661560 427.187897,302.055756 427.769409,309.944275 
z"/>
<path fill="#1D5C67" opacity="1.000000" stroke="none" 
	d="
M1426.791260,416.140961 
	C1423.480713,404.493073 1420.244385,393.249390 1417.220459,381.948914 
	C1414.663574,372.393066 1412.469604,362.739929 1409.898682,353.188080 
	C1407.544312,344.440857 1404.997192,335.741821 1402.336182,327.082672 
	C1401.277344,323.637207 1399.057373,321.321228 1394.928833,321.992218 
	C1393.955811,322.150330 1392.932983,321.998840 1391.932983,321.995148 
	C1383.938110,321.965607 1383.697876,322.185028 1383.696411,330.019928 
	C1383.688477,372.686218 1383.712646,415.352539 1383.668579,458.018768 
	C1383.657837,468.348785 1383.464111,478.679169 1383.289673,489.008270 
	C1383.193726,494.686646 1380.289307,497.763794 1374.780151,497.773621 
	C1352.280396,497.813660 1329.780396,497.789215 1307.280762,497.714020 
	C1301.619385,497.695099 1299.125244,494.794861 1299.115479,488.253784 
	C1299.057861,449.920837 1299.031738,411.587799 1299.032104,373.254791 
	C1299.033203,269.088898 1299.051392,164.922974 1299.067261,60.757065 
	C1299.068726,51.053612 1301.436890,48.683857 1311.047119,48.690033 
	C1352.546753,48.716698 1394.046509,48.751362 1435.546143,48.765434 
	C1450.490479,48.770500 1465.011475,50.823132 1477.931152,58.911503 
	C1493.576538,68.706245 1507.409546,80.536453 1516.408081,97.025032 
	C1521.860474,107.015617 1525.805176,117.456955 1527.210205,129.046066 
	C1531.512451,164.533722 1528.772095,200.118896 1528.861938,235.624771 
	C1528.926636,261.201721 1518.747559,283.685211 1498.723389,300.709839 
	C1493.823730,304.875519 1488.527710,308.615631 1483.170654,312.186462 
	C1480.298218,314.101196 1479.372437,316.475159 1480.325195,319.398743 
	C1484.613403,332.558167 1489.280518,345.596191 1493.442993,358.794067 
	C1498.799805,375.778534 1503.599121,392.939789 1509.019409,409.903198 
	C1514.536255,427.168671 1520.575928,444.266418 1526.268066,461.476868 
	C1529.211060,470.375519 1532.193481,479.280670 1534.590942,488.333130 
	C1536.113892,494.083557 1533.563965,497.957916 1526.870117,497.878204 
	C1504.373291,497.610260 1481.871704,497.761597 1459.371948,497.741028 
	C1450.776855,497.733185 1447.946289,494.975861 1445.992188,486.522827 
	C1443.769775,476.909027 1440.876221,467.450989 1438.300293,457.918213 
	C1435.554932,447.758514 1432.858276,437.585663 1430.102173,427.428955 
	C1429.111328,423.777252 1428.008911,420.155792 1426.791260,416.140961 
M1442.732056,162.566803 
	C1441.536377,156.269516 1440.599731,149.908951 1439.080322,143.690735 
	C1437.108276,135.620117 1426.032593,129.324966 1418.338867,129.038605 
	C1408.853271,128.685562 1399.342529,129.036835 1389.843018,129.003540 
	C1385.703735,128.989029 1383.720581,130.855774 1383.726929,135.046844 
	C1383.781738,171.046265 1383.837280,207.045822 1383.765869,243.045090 
	C1383.758423,246.828308 1385.206299,247.900482 1388.793823,247.850922 
	C1398.290649,247.719666 1407.807495,248.236115 1417.284058,247.797546 
	C1421.601318,247.597748 1426.376465,246.645538 1430.008789,244.471909 
	C1438.033447,239.669907 1442.439819,231.907425 1442.593750,222.545135 
	C1442.917114,202.883881 1442.715820,183.214020 1442.732056,162.566803 
z"/>
<path fill="#1D5C67" opacity="1.000000" stroke="none" 
	d="
M1068.129150,431.000000 
	C1068.125854,307.361389 1068.119629,184.222794 1068.121948,61.084198 
	C1068.122070,52.422176 1071.912598,48.658264 1080.511108,48.661381 
	C1143.497192,48.684208 1206.483276,48.704506 1269.469360,48.725372 
	C1277.719238,48.728107 1281.215576,52.176762 1281.220215,60.446503 
	C1281.233887,85.274330 1281.117554,110.102783 1281.270264,134.929642 
	C1281.317017,142.524261 1276.399536,147.131592 1269.048462,147.058319 
	C1235.392578,146.722794 1201.731445,146.903244 1168.072266,146.907120 
	C1160.969116,146.907944 1159.339722,148.543579 1159.332764,155.799240 
	C1159.314087,175.294907 1159.299927,194.790665 1159.347290,214.286240 
	C1159.367920,222.769501 1160.869385,224.162628 1169.274536,224.166687 
	C1194.268921,224.178741 1219.263184,224.199249 1244.257568,224.251862 
	C1251.336670,224.266754 1256.181641,228.946823 1256.207031,236.049057 
	C1256.292358,259.876831 1256.288940,283.705109 1256.249634,307.533051 
	C1256.238647,314.251678 1252.460327,317.896851 1245.786621,317.906403 
	C1219.792480,317.943634 1193.798218,317.967072 1167.804077,318.005035 
	C1160.763672,318.015320 1159.284302,319.482025 1159.282349,326.498718 
	C1159.276367,347.327423 1159.266846,368.156219 1159.309937,388.984833 
	C1159.323730,395.675232 1161.624878,397.852142 1168.382202,397.844879 
	C1202.207764,397.808472 1236.034424,397.902008 1269.857910,397.616821 
	C1276.348633,397.562103 1280.886963,400.839661 1281.019653,408.718933 
	C1281.465942,435.205261 1281.248779,461.704315 1281.118652,488.197693 
	C1281.087280,494.572876 1277.520874,497.749481 1271.037842,497.751526 
	C1206.885376,497.771790 1142.732788,497.769379 1078.580322,497.742584 
	C1072.043823,497.739868 1068.195557,493.651703 1068.161743,486.486786 
	C1068.075317,468.158203 1068.130127,449.828979 1068.129150,431.000000 
z"/>
<path fill="#1E5C67" opacity="1.000000" stroke="none" 
	d="
M1853.127808,321.793396 
	C1854.190308,321.649994 1855.252808,321.506592 1856.949707,321.445984 
	C1858.434204,320.861511 1859.284302,320.194214 1860.134399,319.526947 
	C1860.882446,319.459442 1861.630493,319.391937 1862.985474,319.440857 
	C1864.439819,318.866943 1865.287231,318.176636 1866.134644,317.486298 
	C1867.184814,317.394958 1868.234863,317.303650 1869.901855,317.346954 
	C1871.327026,317.284485 1872.135132,317.087402 1873.173096,317.076233 
	C1874.935181,317.508453 1876.467651,317.754700 1877.868530,318.311371 
	C1874.570801,321.230042 1874.269531,324.285431 1877.967041,326.117706 
	C1889.304199,331.735657 1898.601562,341.488525 1911.965454,343.470245 
	C1911.955688,347.246887 1911.939087,350.568329 1911.922485,353.889801 
	C1911.922485,353.889801 1911.942505,353.959381 1911.607910,353.947540 
	C1910.869751,353.971039 1910.465942,354.006378 1909.779541,353.829285 
	C1907.540039,349.671814 1904.508057,347.667175 1900.262085,349.649414 
	C1895.878906,351.695648 1897.484985,355.498444 1897.734375,359.194977 
	C1898.011597,363.302246 1897.450684,367.616852 1896.409546,371.621460 
	C1895.292725,375.917847 1893.213501,379.967163 1891.515015,384.108215 
	C1890.172729,387.381073 1889.508301,390.396576 1894.059937,391.477966 
	C1893.688477,393.256195 1893.388916,394.690491 1893.089355,396.124756 
	C1893.089355,396.124756 1893.073975,396.031311 1892.746094,395.958862 
	C1888.154297,392.899353 1885.447021,394.884033 1882.348389,398.257660 
	C1877.708252,403.309875 1872.520020,407.886261 1867.332764,412.397919 
	C1864.197388,415.124847 1861.042236,417.488983 1864.097046,422.119507 
	C1864.097046,422.119507 1864.036743,422.062256 1863.795898,422.126862 
	C1863.036011,422.703064 1862.516968,423.214661 1861.997925,423.726257 
	C1859.212036,425.095551 1856.426025,426.464844 1853.053955,427.715454 
	C1851.658569,428.104156 1850.849243,428.611511 1850.039795,429.118835 
	C1850.039795,429.118835 1850.050537,429.051147 1849.791138,429.108765 
	C1849.021362,429.442749 1848.510986,429.719147 1848.000610,429.995544 
	C1845.568726,430.881592 1843.136963,431.767578 1840.175781,432.286133 
	C1834.640503,427.552704 1831.552612,432.042419 1828.011230,434.438873 
	C1824.864258,437.870544 1820.737183,436.931885 1816.143799,436.755005 
	C1814.624634,436.973877 1813.785889,437.385590 1812.947144,437.797272 
	C1811.074707,438.239594 1809.204834,439.045593 1807.329346,439.059082 
	C1800.513428,439.108124 1793.695679,438.891815 1786.199585,438.373993 
	C1780.039307,437.645477 1774.557983,437.318573 1769.076660,436.991699 
	C1766.347412,436.609039 1763.618164,436.226410 1760.497070,435.393005 
	C1760.997559,429.385956 1758.494263,427.137543 1752.401001,427.651978 
	C1748.170044,428.009155 1743.907227,427.987000 1739.658569,428.134308 
	C1739.658569,428.134308 1739.280518,427.923920 1738.972656,427.510223 
	C1737.716309,426.756592 1736.767822,426.416626 1735.819458,426.076660 
	C1729.147095,422.223297 1722.218506,418.748108 1715.855835,414.437592 
	C1702.735229,405.548584 1692.428589,393.729828 1684.085693,380.440063 
	C1676.696045,368.668762 1670.950684,356.138916 1667.712280,342.303497 
	C1664.607666,329.039246 1664.179565,315.819977 1664.193726,302.406128 
	C1664.253052,246.244675 1663.861938,190.079803 1664.384766,133.923126 
	C1664.623657,108.248749 1673.991577,85.658699 1691.210693,66.268448 
	C1702.946045,53.053379 1717.385254,44.056190 1733.480347,37.645908 
	C1739.800171,35.128941 1746.921875,34.691818 1753.595947,32.984993 
	C1769.253784,28.980703 1785.206299,27.748888 1801.196167,28.996349 
	C1813.734375,29.974518 1826.174194,32.138618 1838.131226,36.599510 
	C1858.692017,44.270214 1874.964844,57.774033 1888.363525,74.539223 
	C1898.962524,87.801147 1905.616333,103.240532 1909.110107,120.113785 
	C1911.338013,130.873505 1912.303589,141.568466 1912.225220,152.491043 
	C1912.025879,180.320587 1912.011963,208.151505 1911.944458,235.981934 
	C1911.921265,245.542999 1908.101562,249.117371 1898.749268,250.380798 
	C1890.160034,251.541107 1881.738647,253.943390 1873.244141,255.802567 
	C1865.405762,257.518097 1857.554077,259.177124 1849.734619,260.974945 
	C1841.926758,262.770050 1834.170410,264.790466 1826.356323,266.556122 
	C1819.327759,268.144257 1812.235718,269.451111 1805.200073,271.009399 
	C1797.366943,272.744293 1789.583130,274.703094 1781.745483,276.415741 
	C1774.521729,277.994232 1767.300293,279.697235 1759.990723,280.728577 
	C1755.254028,281.396912 1753.199585,283.482666 1753.255981,288.146637 
	C1753.453613,304.474304 1753.092041,320.826965 1753.900269,337.122620 
	C1754.437744,347.958679 1760.354492,356.760986 1770.290405,360.943237 
	C1776.537109,363.572693 1784.017334,363.469116 1790.987671,364.135162 
	C1800.653931,365.058899 1810.132202,363.694946 1819.027466,359.772888 
	C1822.283936,358.337006 1825.017212,355.714539 1828.454834,353.222412 
	C1829.244141,352.151306 1829.567505,351.491119 1829.890869,350.830933 
	C1829.890869,350.830933 1830.067627,350.444672 1830.437256,350.133392 
	C1831.153198,349.161591 1831.499512,348.501038 1831.845947,347.840485 
	C1831.845947,347.840485 1831.916870,347.903534 1832.200073,347.719543 
	C1832.919312,345.596375 1833.355347,343.657257 1833.791382,341.718109 
	C1834.291626,339.125763 1834.791992,336.533447 1835.595703,333.426941 
	C1836.291016,331.947784 1836.682983,330.982788 1837.075073,330.017792 
	C1837.292358,329.203979 1837.509644,328.390167 1838.216187,327.298157 
	C1839.839111,326.622681 1840.972900,326.225372 1842.106567,325.828064 
	C1842.485718,325.612335 1842.864990,325.396576 1843.850342,325.042847 
	C1845.345581,324.498596 1846.234619,324.092346 1847.123779,323.686157 
	C1848.175537,323.516266 1849.227417,323.346375 1850.918213,323.055176 
	C1852.080811,322.553711 1852.604370,322.173553 1853.127808,321.793396 
M1829.112183,138.324814 
	C1827.663208,128.189087 1824.243896,118.775146 1814.180908,114.659065 
	C1806.733643,111.612953 1798.531982,109.993866 1790.508545,108.936134 
	C1785.997437,108.341446 1781.165161,110.170570 1776.479004,110.917381 
	C1763.728149,112.949532 1753.552490,124.873451 1753.270752,136.136459 
	C1752.754395,156.779144 1753.093628,177.444534 1753.174438,198.100067 
	C1753.200195,204.672806 1757.190552,207.306778 1763.479492,205.414093 
	C1772.746216,202.625198 1781.968994,199.595261 1791.384155,197.420349 
	C1801.297852,195.130280 1811.477295,193.997009 1821.405273,191.757812 
	C1824.172485,191.133698 1828.556274,188.473419 1828.637573,186.593216 
	C1829.319946,170.809311 1829.172974,154.989532 1829.112183,138.324814 
z"/>
<path fill="#4D3055" opacity="1.000000" stroke="none" 
	d="
M285.058228,375.000000 
	C285.060822,412.325043 285.073181,449.150055 285.056946,485.975098 
	C285.052979,494.959351 282.102081,497.851105 273.100433,497.847717 
	C246.773041,497.837799 220.445648,497.830017 194.118256,497.806335 
	C182.126541,497.795532 179.055649,494.651947 179.057404,482.357727 
	C179.063934,436.701385 179.100922,391.045013 179.099258,345.388672 
	C179.095856,251.409866 179.073044,157.431046 179.063965,63.452240 
	C179.062927,52.695717 182.985519,48.777729 193.784912,48.764458 
	C219.612396,48.732723 245.439926,48.709789 271.267426,48.710098 
	C281.225983,48.710217 285.073639,52.581528 285.073608,62.570320 
	C285.073242,166.546875 285.064148,270.523438 285.058228,375.000000 
z"/>
<path fill="#1E5C67" opacity="1.000000" stroke="none" 
	d="
M1550.255127,163.000122 
	C1550.249268,128.169342 1550.236694,93.838570 1550.237427,59.507797 
	C1550.237549,51.769302 1553.302002,48.747128 1561.114258,48.753086 
	C1585.112427,48.771389 1609.110718,48.798851 1633.108887,48.827141 
	C1641.981201,48.837597 1644.736816,51.515732 1644.739746,60.362331 
	C1644.782959,193.019058 1644.809448,325.675781 1644.840210,458.332520 
	C1644.842407,467.665161 1644.858521,476.997833 1644.846680,486.330475 
	C1644.835449,495.121033 1642.293457,497.711731 1633.701660,497.722595 
	C1609.370117,497.753387 1585.038696,497.779266 1560.707153,497.806488 
	C1553.789673,497.814209 1550.372192,494.629364 1550.286133,487.473419 
	C1550.129761,474.476257 1550.216431,461.476074 1550.217773,448.477142 
	C1550.227417,353.484802 1550.240967,258.492462 1550.255127,163.000122 
z"/>
<path fill="#A3C444" opacity="1.000000" stroke="none" 
	d="
M913.019897,222.177826 
	C953.665710,222.084106 993.815063,221.999710 1033.964355,221.873138 
	C1041.945801,221.847977 1043.999512,223.703400 1044.003784,231.772522 
	C1044.048096,314.571411 1044.059937,397.370331 1044.083618,480.169220 
	C1044.084473,483.167908 1044.147095,486.166931 1044.121216,489.165253 
	C1044.069824,495.135284 1041.411499,497.652954 1035.109863,497.652466 
	C998.958130,497.649597 962.806335,497.627167 926.654602,497.620911 
	C919.490906,497.619690 912.327271,497.680939 905.163574,497.674713 
	C899.361511,497.669647 896.860718,495.494385 896.806519,489.691833 
	C896.638428,471.700867 896.636597,453.708008 896.626526,435.715851 
	C896.588501,367.744049 896.575134,299.772247 896.545898,231.800461 
	C896.542358,223.522751 898.069641,222.019867 906.527344,222.103668 
	C908.526062,222.123474 910.524719,222.149292 913.019897,222.177826 
z"/>
<path fill="#E6A126" opacity="1.000000" stroke="none" 
	d="
M986.753601,175.000671 
	C986.727600,183.493027 986.611267,191.486389 986.701294,199.477417 
	C986.737549,202.693390 985.397339,204.046295 982.256042,204.005005 
	C972.764404,203.880219 963.268250,203.942032 953.781616,203.666763 
	C950.065308,203.558914 948.278320,201.060440 948.262573,197.387726 
	C948.216125,186.563156 948.177979,175.738464 948.168213,164.913803 
	C948.135254,128.272720 948.115784,91.631645 948.091553,54.990566 
	C948.090332,53.178753 948.091431,51.366940 948.091431,49.122314 
	C961.240295,49.122314 973.959534,49.122314 986.598328,49.122314 
	C993.206238,67.232506 995.602966,86.566002 1002.435181,104.529701 
	C1003.078308,104.424011 1003.721497,104.318321 1004.364685,104.212631 
	C1004.477417,102.522003 1004.681641,100.831749 1004.688538,99.140686 
	C1004.750244,83.986862 1004.910278,68.831276 1004.725464,53.680065 
	C1004.676147,49.638794 1005.957642,48.551865 1009.880066,48.683178 
	C1018.864563,48.983955 1027.872314,49.049831 1036.855103,48.747681 
	C1041.348267,48.596558 1042.845703,49.808643 1042.821899,54.525089 
	C1042.619873,94.496315 1042.670166,134.468842 1042.655640,174.440979 
	C1042.652832,182.268723 1042.608398,190.098129 1042.754883,197.923569 
	C1042.833130,202.107315 1041.282104,203.919647 1036.867676,203.827560 
	C1027.547241,203.633118 1018.215149,203.728348 1008.894043,203.956848 
	C1005.324829,204.044327 1003.936890,202.403839 1003.064819,199.235245 
	C998.453613,182.481796 993.697815,165.768127 988.966309,149.048004 
	C988.843567,148.614029 988.425232,148.263718 986.746155,147.864410 
	C986.746155,156.743195 986.746155,165.621964 986.753601,175.000671 
z"/>
<path fill="#E5A127" opacity="1.000000" stroke="none" 
	d="
M935.135132,161.001602 
	C935.194763,173.154816 935.361816,184.809006 935.269653,196.461136 
	C935.218689,202.895111 934.381714,203.600540 928.081909,203.736420 
	C919.759888,203.915924 911.435242,203.974640 903.112366,204.117523 
	C898.748962,204.192429 896.785706,202.146057 896.790039,197.738297 
	C896.837830,149.453766 896.858459,101.169098 896.758118,52.884735 
	C896.750793,49.345726 898.248108,48.715290 901.248352,48.753197 
	C910.903992,48.875191 920.564819,48.978710 930.217163,48.777824 
	C933.917297,48.700821 935.255005,49.915222 935.200928,53.612019 
	C935.037476,64.764671 935.099365,75.920845 935.100464,87.075645 
	C935.102783,111.551003 935.122009,136.026352 935.135132,161.001602 
z"/>
<path fill="#1B5660" opacity="1.000000" stroke="none" 
	d="
M1911.958618,343.015076 
	C1898.601562,341.488525 1889.304199,331.735657 1877.967041,326.117706 
	C1874.269531,324.285431 1874.570801,321.230042 1877.839111,317.901886 
	C1877.853760,316.636047 1877.766357,316.090118 1877.678833,315.544159 
	C1877.678833,315.544159 1877.721069,315.643982 1878.111816,315.745667 
	C1879.667114,315.900940 1880.831421,315.954529 1882.301270,316.125183 
	C1886.137451,316.698303 1888.705566,315.472656 1890.183105,311.817505 
	C1890.611938,311.143097 1890.852783,310.664429 1891.093506,310.185760 
	C1891.093506,310.185760 1891.104370,310.123138 1891.537109,310.097870 
	C1895.336914,308.920898 1898.703979,307.769196 1902.071167,306.617523 
	C1902.542114,306.496735 1903.013184,306.375946 1904.084961,306.068115 
	C1905.145996,305.368469 1905.606201,304.855804 1906.066284,304.343201 
	C1906.483276,304.337158 1906.900146,304.331116 1907.783813,304.625427 
	C1909.807129,305.962341 1911.363892,306.998871 1912.920532,308.035400 
	C1913.175415,316.031891 1913.430298,324.028381 1913.347656,332.713104 
	C1912.659668,336.605927 1912.309204,339.810486 1911.958618,343.015076 
z"/>
<path fill="#8CADB2" opacity="1.000000" stroke="none" 
	d="
M2016.436279,455.684814 
	C2016.056274,456.690460 2015.531738,458.145020 2014.613647,458.463043 
	C2004.336304,462.022919 1997.695068,469.041504 1994.249146,479.250885 
	C1994.098511,479.697510 1993.733643,480.079498 1993.430176,480.461029 
	C1993.358276,480.551300 1993.130981,480.518036 1993.079224,480.525848 
	C1990.335083,476.080505 1987.614014,471.672668 1984.626221,467.082458 
	C1980.580933,464.298828 1976.805542,461.693115 1973.022461,459.098785 
	C1971.744873,458.222595 1970.447510,457.374969 1969.191895,456.142151 
	C1971.244385,455.188568 1973.264160,454.607086 1975.993164,454.202637 
	C1984.409912,454.564819 1992.116943,454.871429 1999.824341,454.879059 
	C2003.212769,454.882385 2006.601807,454.276886 2009.990479,453.947815 
	C2012.029907,454.500488 2014.069458,455.053192 2016.436279,455.684814 
z"/>
<path fill="#1B5660" opacity="1.000000" stroke="none" 
	d="
M1893.396240,395.996094 
	C1893.388916,394.690491 1893.688477,393.256195 1894.059937,391.477966 
	C1889.508301,390.396576 1890.172729,387.381073 1891.515015,384.108215 
	C1893.213501,379.967163 1895.292725,375.917847 1896.409546,371.621460 
	C1897.450684,367.616852 1898.011597,363.302246 1897.734375,359.194977 
	C1897.484985,355.498444 1895.878906,351.695648 1900.262085,349.649414 
	C1904.508057,347.667175 1907.540039,349.671814 1909.769043,354.274841 
	C1910.029053,357.625153 1910.016968,360.317505 1910.005127,363.009888 
	C1906.013672,372.377014 1902.125977,381.790863 1897.943481,391.071899 
	C1897.105957,392.930023 1895.145508,394.282074 1893.396240,395.996094 
z"/>
<path fill="#7D8080" opacity="1.000000" stroke="none" 
	d="
M2009.795410,453.678162 
	C2006.601807,454.276886 2003.212769,454.882385 1999.824341,454.879059 
	C1992.116943,454.871429 1984.409912,454.564819 1976.352539,454.162415 
	C1984.099487,449.116241 1989.798584,442.351959 1992.970215,432.787231 
	C1996.229980,441.755493 2001.181763,449.041962 2009.795410,453.678162 
z"/>
<path fill="#1B5660" opacity="1.000000" stroke="none" 
	d="
M1864.441895,422.051575 
	C1861.042236,417.488983 1864.197388,415.124847 1867.332764,412.397919 
	C1872.520020,407.886261 1877.708252,403.309875 1882.348389,398.257660 
	C1885.447021,394.884033 1888.154297,392.899353 1892.774902,395.996490 
	C1892.219971,398.012177 1891.673584,400.236328 1890.335693,401.770203 
	C1883.089111,410.078125 1874.897217,417.262878 1864.441895,422.051575 
z"/>
<path fill="#1B5660" opacity="1.000000" stroke="none" 
	d="
M1739.847412,428.440308 
	C1743.907227,427.987000 1748.170044,428.009155 1752.401001,427.651978 
	C1758.494263,427.137543 1760.997559,429.385956 1760.076416,435.284424 
	C1753.377319,433.333160 1746.706787,431.039734 1739.847412,428.440308 
z"/>
<path fill="#14444A" opacity="1.000000" stroke="none" 
	d="
M1911.965454,343.470245 
	C1912.309204,339.810486 1912.659668,336.605927 1913.281006,333.173462 
	C1913.240967,339.825958 1912.930298,346.706299 1912.270996,353.738220 
	C1911.939087,350.568329 1911.955688,347.246887 1911.965454,343.470245 
z"/>
<path fill="#1B5660" opacity="1.000000" stroke="none" 
	d="
M1828.429932,434.558319 
	C1831.552612,432.042419 1834.640503,427.552704 1839.816528,432.184326 
	C1836.273804,433.192505 1832.561279,433.935150 1828.429932,434.558319 
z"/>
<path fill="#1B5660" opacity="1.000000" stroke="none" 
	d="
M1769.260498,437.326355 
	C1774.557983,437.318573 1780.039307,437.645477 1785.744873,438.245850 
	C1780.460815,438.233246 1774.952515,437.947144 1769.260498,437.326355 
z"/>
<path fill="#14444A" opacity="1.000000" stroke="none" 
	d="
M1890.679443,310.193207 
	C1890.852783,310.664429 1890.611938,311.143097 1889.806396,311.816284 
	C1887.159668,312.675293 1885.078003,313.339813 1882.615967,314.001740 
	C1880.744263,314.308411 1879.252686,314.617676 1877.761230,314.926941 
	C1881.929321,313.351532 1886.097412,311.776093 1890.679443,310.193207 
z"/>
<path fill="#14444A" opacity="1.000000" stroke="none" 
	d="
M1901.692383,306.503906 
	C1898.703979,307.769196 1895.336914,308.920898 1891.567749,310.089722 
	C1894.548340,308.867981 1897.931030,307.629150 1901.692383,306.503906 
z"/>
<path fill="#14444A" opacity="1.000000" stroke="none" 
	d="
M1910.339111,362.842346 
	C1910.016968,360.317505 1910.029053,357.625153 1910.051758,354.487244 
	C1910.465942,354.006378 1910.869751,353.971039 1911.577148,353.928558 
	C1911.478394,356.839233 1911.075806,359.757019 1910.339111,362.842346 
z"/>
<path fill="#1D5D67" opacity="1.000000" stroke="none" 
	d="
M1877.378906,315.436768 
	C1877.766357,316.090118 1877.853760,316.636047 1877.970703,317.591492 
	C1876.467651,317.754700 1874.935181,317.508453 1873.198608,316.804565 
	C1873.029419,315.983154 1873.064453,315.619354 1873.099487,315.255554 
	C1874.425903,315.280182 1875.752441,315.304779 1877.378906,315.436768 
z"/>
<path fill="#14444A" opacity="1.000000" stroke="none" 
	d="
M1833.514893,341.945679 
	C1833.355347,343.657257 1832.919312,345.596375 1832.152954,347.713989 
	C1832.294556,345.986023 1832.766357,344.079651 1833.514893,341.945679 
z"/>
<path fill="#14444A" opacity="1.000000" stroke="none" 
	d="
M1912.839111,307.704803 
	C1911.363892,306.998871 1909.807129,305.962341 1908.093994,304.670837 
	C1909.544189,305.401978 1911.151001,306.388062 1912.839111,307.704803 
z"/>
<path fill="#1E5C67" opacity="1.000000" stroke="none" 
	d="
M1877.685303,315.107300 
	C1879.252686,314.617676 1880.744263,314.308411 1882.492554,314.252747 
	C1882.498291,315.006958 1882.247070,315.507538 1881.995850,316.008087 
	C1880.831421,315.954529 1879.667114,315.900940 1878.060547,315.763184 
	C1877.618530,315.678955 1877.609253,315.287659 1877.685303,315.107300 
z"/>
<path fill="#14444A" opacity="1.000000" stroke="none" 
	d="
M1836.822266,330.206726 
	C1836.682983,330.982788 1836.291016,331.947784 1835.650635,333.013489 
	C1835.791382,332.207977 1836.180420,331.301849 1836.822266,330.206726 
z"/>
<path fill="#14444A" opacity="1.000000" stroke="none" 
	d="
M1841.784668,325.722534 
	C1840.972900,326.225372 1839.839111,326.622681 1838.384888,327.028229 
	C1839.197144,326.563354 1840.330078,326.090179 1841.784668,325.722534 
z"/>
<path fill="#14444A" opacity="1.000000" stroke="none" 
	d="
M1859.815674,319.479858 
	C1859.284302,320.194214 1858.434204,320.861511 1857.354248,321.447327 
	C1857.915161,320.721497 1858.706177,320.077118 1859.815674,319.479858 
z"/>
<path fill="#14444A" opacity="1.000000" stroke="none" 
	d="
M1865.818604,317.457947 
	C1865.287231,318.176636 1864.439819,318.866943 1863.361084,319.466919 
	C1863.920654,318.727570 1864.711670,318.078552 1865.818604,317.457947 
z"/>
<path fill="#14444A" opacity="1.000000" stroke="none" 
	d="
M1872.775391,315.235687 
	C1873.064453,315.619354 1873.029419,315.983154 1872.968872,316.618652 
	C1872.135132,317.087402 1871.327026,317.284485 1870.297852,317.362366 
	C1870.868408,316.567352 1871.659790,315.891571 1872.775391,315.235687 
z"/>
<path fill="#14444A" opacity="1.000000" stroke="none" 
	d="
M1846.805908,323.601135 
	C1846.234619,324.092346 1845.345581,324.498596 1844.141235,324.893280 
	C1844.713379,324.426514 1845.600708,323.971313 1846.805908,323.601135 
z"/>
<path fill="#1B5660" opacity="1.000000" stroke="none" 
	d="
M1813.275635,437.825165 
	C1813.785889,437.385590 1814.624634,436.973877 1815.693237,436.705505 
	C1815.150146,437.183563 1814.377197,437.518311 1813.275635,437.825165 
z"/>
<path fill="#1B5660" opacity="1.000000" stroke="none" 
	d="
M1735.985596,426.345093 
	C1736.767822,426.416626 1737.716309,426.756592 1738.823242,427.353790 
	C1738.038452,427.278564 1737.095215,426.946075 1735.985596,426.345093 
z"/>
<path fill="#1B5660" opacity="1.000000" stroke="none" 
	d="
M1850.353394,429.049255 
	C1850.849243,428.611511 1851.658569,428.104156 1852.695068,427.714661 
	C1852.170532,428.214874 1851.418701,428.597229 1850.353394,429.049255 
z"/>
<path fill="#14444A" opacity="1.000000" stroke="none" 
	d="
M1905.777832,304.344849 
	C1905.606201,304.855804 1905.145996,305.368469 1904.437500,305.974518 
	C1904.622559,305.494110 1905.056030,304.920319 1905.777832,304.344849 
z"/>
<path fill="#1B5660" opacity="1.000000" stroke="none" 
	d="
M1848.206299,430.106995 
	C1848.510986,429.719147 1849.021362,429.442749 1849.823242,429.120758 
	C1849.547241,429.456238 1848.979614,429.837341 1848.206299,430.106995 
z"/>
<path fill="#1B5660" opacity="1.000000" stroke="none" 
	d="
M1862.287720,423.720337 
	C1862.516968,423.214661 1863.036011,422.703064 1863.837158,422.131989 
	C1863.605347,422.619812 1863.091431,423.167114 1862.287720,423.720337 
z"/>
<path fill="#14444A" opacity="1.000000" stroke="none" 
	d="
M1829.631836,350.968353 
	C1829.567505,351.491119 1829.244141,352.151306 1828.684326,352.960876 
	C1828.756226,352.442078 1829.064453,351.773926 1829.631836,350.968353 
z"/>
<path fill="#14444A" opacity="1.000000" stroke="none" 
	d="
M1831.579712,347.960724 
	C1831.499512,348.501038 1831.153198,349.161591 1830.552734,349.955139 
	C1830.636841,349.419098 1830.975220,348.750031 1831.579712,347.960724 
z"/>
<path fill="#14444A" opacity="1.000000" stroke="none" 
	d="
M1852.856079,321.715668 
	C1852.604370,322.173553 1852.080811,322.553711 1851.312988,322.986023 
	C1851.573853,322.571442 1852.079102,322.104675 1852.856079,321.715668 
z"/>
<path fill="#010102" opacity="1.000000" stroke="none" 
	d="
M1442.730957,163.057251 
	C1442.715820,183.214020 1442.917114,202.883881 1442.593750,222.545135 
	C1442.439819,231.907425 1438.033447,239.669907 1430.008789,244.471909 
	C1426.376465,246.645538 1421.601318,247.597748 1417.284058,247.797546 
	C1407.807495,248.236115 1398.290649,247.719666 1388.793823,247.850922 
	C1385.206299,247.900482 1383.758423,246.828308 1383.765869,243.045090 
	C1383.837280,207.045822 1383.781738,171.046265 1383.726929,135.046844 
	C1383.720581,130.855774 1385.703735,128.989029 1389.843018,129.003540 
	C1399.342529,129.036835 1408.853271,128.685562 1418.338867,129.038605 
	C1426.032593,129.324966 1437.108276,135.620117 1439.080322,143.690735 
	C1440.599731,149.908951 1441.536377,156.269516 1442.730957,163.057251 
z"/>
<path fill="#010202" opacity="1.000000" stroke="none" 
	d="
M1829.193970,138.752686 
	C1829.172974,154.989532 1829.319946,170.809311 1828.637573,186.593216 
	C1828.556274,188.473419 1824.172485,191.133698 1821.405273,191.757812 
	C1811.477295,193.997009 1801.297852,195.130280 1791.384155,197.420349 
	C1781.968994,199.595261 1772.746216,202.625198 1763.479492,205.414093 
	C1757.190552,207.306778 1753.200195,204.672806 1753.174438,198.100067 
	C1753.093628,177.444534 1752.754395,156.779144 1753.270752,136.136459 
	C1753.552490,124.873451 1763.728149,112.949532 1776.479004,110.917381 
	C1781.165161,110.170570 1785.997437,108.341446 1790.508545,108.936134 
	C1798.531982,109.993866 1806.733643,111.612953 1814.180908,114.659065 
	C1824.243896,118.775146 1827.663208,128.189087 1829.193970,138.752686 
z"/>
<path fill="#1D5D67" opacity="1.000000" stroke="none" 
	d="
M1882.301270,316.125183 
	C1882.247070,315.507538 1882.498291,315.006958 1882.872803,314.255371 
	C1885.078003,313.339813 1887.159668,312.675293 1889.618286,312.011963 
	C1888.705566,315.472656 1886.137451,316.698303 1882.301270,316.125183 
z"/>
</svg>